<svg width="26" height="32" viewBox="0 0 26 32" fill="none" xmlns="http://www.w3.org/2000/svg">
<g clip-path="url(#clip0_15_110)">
<path d="M13 3L15.9187 11.9828H25.3638L17.7226 17.5344L20.6412 26.5172L13 24L5.35882 26.5172L8.2775 17.5344L0.636292 11.9828H10.0813L13 3Z" fill="#DB49FF"/>
<path d="M17.52 15.76C17.6053 16.1013 17.648 16.528 17.648 17.04C17.648 17.5307 17.6053 17.9573 17.52 18.32C17.6053 18.6613 17.648 19.088 17.648 19.6C17.648 20.0907 17.6053 20.5173 17.52 20.88C17.6053 21.2213 17.648 21.648 17.648 22.16C17.648 22.6507 17.6053 23.0773 17.52 23.44H16.24C16.3253 23.7813 16.368 24.208 16.368 24.72C16.368 25.2107 16.3253 25.6373 16.24 26H9.84C9.75467 25.6373 9.712 25.2107 9.712 24.72C9.712 24.208 9.75467 23.7813 9.84 23.44H8.56C8.47467 23.0773 8.432 22.6507 8.432 22.16C8.432 21.648 8.47467 21.2213 8.56 20.88H7.28C7.19467 20.5173 7.152 20.0907 7.152 19.6C7.152 19.088 7.19467 18.6613 7.28 18.32C7.19467 17.9573 7.152 17.5307 7.152 17.04C7.152 16.528 7.19467 16.1013 7.28 15.76C7.19467 15.3973 7.152 14.9707 7.152 14.48C7.152 13.968 7.19467 13.5413 7.28 13.2H8.56C8.47467 12.8373 8.432 12.4107 8.432 11.92C8.432 11.408 8.47467 10.9813 8.56 10.64H9.84C9.75467 10.2773 9.712 9.85067 9.712 9.36C9.712 8.848 9.75467 8.42133 9.84 8.08H16.24C16.3253 8.42133 16.368 8.848 16.368 9.36C16.368 9.85067 16.3253 10.2773 16.24 10.64H17.52C17.6053 10.9813 17.648 11.408 17.648 11.92C17.648 12.4107 17.6053 12.8373 17.52 13.2H14.96C14.8747 12.8373 14.832 12.4107 14.832 11.92C14.832 11.408 14.8747 10.9813 14.96 10.64H11.12C11.2053 10.9813 11.248 11.408 11.248 11.92C11.248 12.4107 11.2053 12.8373 11.12 13.2H9.84C9.92533 13.5413 9.968 13.968 9.968 14.48C9.968 14.9707 9.92533 15.3973 9.84 15.76C9.92533 16.1013 9.968 16.528 9.968 17.04C9.968 17.5307 9.92533 17.9573 9.84 18.32C9.92533 18.6613 9.968 19.088 9.968 19.6C9.968 20.0907 9.92533 20.5173 9.84 20.88H11.12C11.2053 21.2213 11.248 21.648 11.248 22.16C11.248 22.6507 11.2053 23.0773 11.12 23.44H14.96C14.8747 23.0773 14.832 22.6507 14.832 22.16C14.832 21.648 14.8747 21.2213 14.96 20.88C14.8747 20.5173 14.832 20.0907 14.832 19.6C14.832 19.088 14.8747 18.6613 14.96 18.32H13.04C12.9547 17.9573 12.912 17.5307 12.912 17.04C12.912 16.528 12.9547 16.1013 13.04 15.76H17.52Z" fill="black"/>
</g>
<defs>
<clipPath id="clip0_15_110">
<rect width="26" height="32" fill="white"/>
</clipPath>
</defs>
</svg>
